<?xml version="1.0" encoding="utf-8"?>
<!-- Generator: Adobe Illustrator 24.0.2, SVG Export Plug-In . SVG Version: 6.00 Build 0)  -->
<svg version="1.1" id="Слой_1" xmlns="http://www.w3.org/2000/svg" xmlns:xlink="http://www.w3.org/1999/xlink" x="0px" y="0px"
	 viewBox="0 0 170.1 48" style="enable-background:new 0 0 170.1 48;" xml:space="preserve">
<style type="text/css">
	.st0{fill:#012345;}
	.st1{fill:#FCFCFC;}
	.st2{fill:#4959FF;}
</style>
<path class="st0" d="M72.6,14.1c1.1,0,2,0.2,2.8,0.7c0.8,0.5,1.5,1.1,2,1.9c0.5,0.8,0.7,1.7,0.7,2.8c0,1.1-0.2,2-0.7,2.9
	c-0.5,0.8-1.1,1.5-2,1.9c-0.8,0.5-1.8,0.7-2.8,0.7h-3.8V30h-2.9V14.1H72.6z M72.5,22.3c0.5,0,1-0.1,1.4-0.4c0.4-0.3,0.7-0.6,1-1
	c0.2-0.4,0.4-0.9,0.4-1.5c0-0.5-0.1-0.9-0.4-1.4c-0.2-0.4-0.6-0.8-1-1c-0.4-0.3-0.9-0.4-1.4-0.4h-3.7v5.6H72.5z"/>
<path class="st0" d="M91.1,23.8c0,0.3,0,0.6-0.1,1h-9.4c0.1,0.6,0.3,1.2,0.6,1.7c0.3,0.5,0.7,0.8,1.2,1.1c0.5,0.2,1,0.4,1.5,0.4
	c0.7,0,1.3-0.1,1.7-0.4c0.5-0.3,0.8-0.7,1-1.2h3.1c-0.2,0.7-0.6,1.4-1.1,2.1c-0.5,0.6-1.2,1.1-2,1.5c-0.8,0.4-1.7,0.6-2.6,0.6
	c-1.2,0-2.2-0.3-3.2-0.9c-1-0.6-1.7-1.3-2.2-2.3c-0.5-1-0.8-2-0.8-3.2c0-1.2,0.3-2.2,0.8-3.2c0.5-1,1.3-1.8,2.2-2.3
	c1-0.6,2-0.9,3.2-0.9c1.2,0,2.2,0.3,3.2,0.8c0.9,0.6,1.6,1.3,2.1,2.3C90.9,21.6,91.1,22.7,91.1,23.8z M88.2,22.5
	c0-0.4-0.2-0.9-0.5-1.2c-0.3-0.4-0.7-0.7-1.2-0.9c-0.5-0.2-1-0.3-1.5-0.3c-0.8,0-1.4,0.2-2,0.6c-0.6,0.4-1,1-1.2,1.8H88.2z"/>
<path class="st0" d="M96.1,18v2c0.4-0.7,1-1.3,1.7-1.7c0.7-0.4,1.5-0.6,2.4-0.6c1.1,0,2.1,0.3,3,0.9c0.9,0.6,1.6,1.3,2.1,2.3
	c0.5,1,0.8,2,0.8,3.2c0,1.2-0.3,2.2-0.8,3.2c-0.5,1-1.2,1.7-2.1,2.3c-0.9,0.6-1.9,0.9-3,0.9c-0.9,0-1.7-0.2-2.4-0.6
	c-0.7-0.4-1.3-1-1.7-1.7l0.1,1.4v4.7h-2.8V18H96.1z M99.8,27.8c0.6,0,1.2-0.2,1.8-0.5c0.5-0.3,1-0.8,1.3-1.3c0.3-0.6,0.5-1.2,0.5-2
	c0-0.7-0.2-1.4-0.5-2c-0.3-0.6-0.7-1-1.3-1.3c-0.5-0.3-1.1-0.5-1.8-0.5c-0.6,0-1.2,0.2-1.8,0.5c-0.5,0.3-1,0.8-1.3,1.4
	c-0.3,0.6-0.5,1.2-0.5,1.9c0,0.7,0.2,1.4,0.5,1.9c0.3,0.6,0.8,1,1.3,1.3C98.6,27.6,99.1,27.8,99.8,27.8z"/>
<path class="st0" d="M120.1,23.8c0,0.3,0,0.6-0.1,1h-9.4c0.1,0.6,0.3,1.2,0.6,1.7c0.3,0.5,0.7,0.8,1.2,1.1c0.5,0.2,1,0.4,1.5,0.4
	c0.7,0,1.3-0.1,1.7-0.4c0.5-0.3,0.8-0.7,1-1.2h3.1c-0.2,0.7-0.6,1.4-1.1,2.1c-0.5,0.6-1.2,1.1-2,1.5c-0.8,0.4-1.7,0.6-2.6,0.6
	c-1.2,0-2.2-0.3-3.2-0.9c-1-0.6-1.7-1.3-2.2-2.3c-0.5-1-0.8-2-0.8-3.2c0-1.2,0.3-2.2,0.8-3.2c0.5-1,1.3-1.8,2.2-2.3
	c1-0.6,2-0.9,3.2-0.9c1.2,0,2.2,0.3,3.2,0.8s1.6,1.3,2.1,2.3C119.8,21.6,120.1,22.7,120.1,23.8z M117.2,22.5c0-0.4-0.2-0.9-0.5-1.2
	c-0.3-0.4-0.7-0.7-1.2-0.9c-0.5-0.2-1-0.3-1.5-0.3c-0.8,0-1.4,0.2-2,0.6c-0.6,0.4-1,1-1.2,1.8H117.2z"/>
<path class="st0" d="M122.4,13.5h2.8V30h-2.8V13.5z"/>
<path class="st0" d="M133.4,30.4c-1.1,0-2-0.3-2.9-0.9c-0.9-0.6-1.5-1.3-2-2.3s-0.7-2-0.7-3.2c0-1.2,0.2-2.2,0.7-3.2
	c0.5-1,1.2-1.8,2-2.3c0.9-0.6,1.8-0.9,2.9-0.9c1,0,1.9,0.2,2.6,0.6c0.8,0.4,1.3,1,1.7,1.8v-2h2.7v12h-2.7v-2c-0.4,0.8-1,1.3-1.7,1.8
	C135.2,30.2,134.4,30.4,133.4,30.4z M134.1,27.7c0.6,0,1.2-0.2,1.8-0.5c0.5-0.3,1-0.8,1.3-1.4c0.3-0.6,0.5-1.2,0.5-1.9
	c0-0.7-0.2-1.3-0.5-1.9c-0.3-0.6-0.7-1-1.3-1.4c-0.5-0.3-1.1-0.5-1.8-0.5c-0.6,0-1.2,0.2-1.8,0.5c-0.5,0.3-1,0.8-1.3,1.3
	c-0.3,0.6-0.5,1.2-0.5,2c0,0.8,0.2,1.4,0.5,2c0.3,0.6,0.8,1,1.3,1.3C132.8,27.6,133.4,27.7,134.1,27.7z"/>
<path class="st0" d="M146.5,18v1.9c0.4-0.7,0.9-1.2,1.6-1.6c0.7-0.4,1.6-0.6,2.5-0.6c1.6,0,2.8,0.5,3.6,1.5c0.8,1,1.2,2.5,1.2,4.4
	V30h-2.8v-6.4c0-1.2-0.2-2-0.7-2.5c-0.5-0.5-1.2-0.8-2.1-0.8c-0.6,0-1.1,0.1-1.6,0.4c-0.5,0.3-0.9,0.7-1.2,1.3
	c-0.3,0.5-0.4,1.2-0.4,2V30h-2.8V18H146.5z"/>
<path class="st0" d="M170.1,23.8c0,0.3,0,0.6-0.1,1h-9.4c0.1,0.6,0.3,1.2,0.6,1.7c0.3,0.5,0.7,0.8,1.2,1.1c0.5,0.2,1,0.4,1.5,0.4
	c0.7,0,1.3-0.1,1.7-0.4c0.5-0.3,0.8-0.7,1-1.2h3.1c-0.2,0.7-0.6,1.4-1.1,2.1c-0.5,0.6-1.2,1.1-2,1.5c-0.8,0.4-1.7,0.6-2.6,0.6
	c-1.2,0-2.2-0.3-3.2-0.9c-1-0.6-1.7-1.3-2.2-2.3s-0.8-2-0.8-3.2c0-1.2,0.3-2.2,0.8-3.2c0.5-1,1.3-1.8,2.2-2.3c1-0.6,2-0.9,3.2-0.9
	c1.2,0,2.2,0.3,3.2,0.8c0.9,0.6,1.6,1.3,2.1,2.3C169.8,21.6,170.1,22.7,170.1,23.8z M167.2,22.5c0-0.4-0.2-0.9-0.5-1.2
	c-0.3-0.4-0.7-0.7-1.2-0.9c-0.5-0.2-1-0.3-1.5-0.3c-0.8,0-1.4,0.2-2,0.6c-0.6,0.4-1,1-1.2,1.8H167.2z"/>
<rect class="st1" width="48" height="48"/>
<circle class="st0" cx="17" cy="22" r="8"/>
<circle class="st2" cx="35" cy="7" r="4"/>
<path class="st2" d="M16,45c3,0,6-0.6,8.8-1.8c2.8-1.2,5.3-2.8,7.5-5c2.1-2.1,3.8-4.7,5-7.5C38.4,28,39,25,39,22h-8.3
	c0,1.9-0.4,3.8-1.1,5.6c-0.7,1.8-1.8,3.4-3.2,4.8c-1.4,1.4-3,2.5-4.8,3.2c-1.8,0.7-3.7,1.1-5.6,1.1V45z"/>
</svg>
